<svg xmlns="http://www.w3.org/2000/svg" viewBox="0 0 512 512">
  <defs>
    <linearGradient id="g" x1="0" y1="0" x2="1" y2="1">
      <stop offset="0" stop-color="#f8efe2"/>
      <stop offset="1" stop-color="#d7c4aa"/>
    </linearGradient>
  </defs>
  <rect width="512" height="512" rx="112" fill="url(#g)"/>
  <circle cx="256" cy="256" r="158" fill="#111"/>
  <path d="M166 267c47-88 107-89 154-18 12 18 22 39 31 62 5 14-7 25-20 18-34-18-57-28-77-27-20 1-41 13-71 36-12 9-27-2-23-17 2-9 4-18 6-25z" fill="#f8efe2"/>
  <path d="M205 188c30-34 77-38 112-9 9 7 10 20 2 29-8 8-21 9-30 2-18-15-42-13-58 6-8 9-22 10-31 2-9-8-10-21-2-30z" fill="#f8efe2"/>
</svg>
